<?xml version="1.0" encoding="utf-8"?>
<!-- Generator: Adobe Illustrator 15.0.2, SVG Export Plug-In . SVG Version: 6.00 Build 0)  -->
<!DOCTYPE svg PUBLIC "-//W3C//DTD SVG 1.1//EN" "http://www.w3.org/Graphics/SVG/1.1/DTD/svg11.dtd">
<svg version="1.1" id="Layer_1" xmlns="http://www.w3.org/2000/svg" xmlns:xlink="http://www.w3.org/1999/xlink" x="0px" y="0px"
	 width="147px" height="427px" viewBox="0 0 147 427" enable-background="new 0 0 147 427" xml:space="preserve">
<pattern  x="-86" y="115" width="73.772" height="73.771" patternUnits="userSpaceOnUse" id="Diamond_Overlap_Color" viewBox="3.702 -82.994 73.772 73.771" overflow="visible">
	<g>
		<polygon fill="none" points="3.702,-9.223 3.702,-82.994 77.475,-82.994 77.475,-9.223 		"/>
		<polygon fill="#7F9ED2" points="3.702,-9.223 3.702,-82.994 77.475,-82.994 77.475,-9.223 		"/>
		<polygon fill="#007FC4" points="0,-71.92 3.702,-73.773 22.145,-64.551 3.702,-55.33 0.006,-57.178 		"/>
		<polygon fill="#005984" points="40.588,-55.33 59.03,-46.107 40.588,-36.885 22.145,-46.107 		"/>
		<polygon fill="#00BCE4" points="40.588,-18.443 59.03,-9.223 40.588,0 22.145,-9.223 		"/>
		<polygon fill="#50C8E8" points="40.588,-92.217 59.03,-82.994 40.588,-73.773 22.145,-82.994 		"/>
		<polygon fill="#AEE0E8" points="0,-35.035 3.702,-36.885 22.145,-27.664 3.702,-18.443 0.006,-20.291 		"/>
		<polygon fill="#007FC4" points="81.179,-71.92 77.475,-73.773 59.03,-64.551 77.475,-55.33 81.171,-57.178 		"/>
		<polygon fill="#AEE0E8" points="81.179,-35.035 77.475,-36.885 59.03,-27.664 77.475,-18.443 81.171,-20.291 		"/>
		<polygon fill="#70CDE3" points="22.145,-23.977 11.079,-18.443 22.145,-12.91 33.213,-18.443 		"/>
		<polygon fill="#0070AB" points="22.145,-60.862 11.079,-55.33 22.145,-49.797 33.213,-55.33 		"/>
		<polygon fill="#004A64" points="22.145,-42.42 11.079,-36.885 22.145,-31.354 33.213,-36.885 		"/>
		<polygon fill="#70CDE3" points="59.03,-23.977 47.967,-18.443 59.03,-12.91 70.1,-18.443 		"/>
		<polygon fill="#0070AB" points="59.03,-60.862 47.967,-55.33 59.03,-49.797 70.1,-55.33 		"/>
		<polygon fill="#004A64" points="59.03,-42.42 47.967,-36.885 59.03,-31.354 70.1,-36.885 		"/>
		<polygon fill="#00A4E4" points="22.145,-79.307 11.079,-73.773 22.145,-68.239 33.213,-73.773 		"/>
		<polygon fill="#00A4E4" points="59.03,-79.307 47.967,-73.773 59.03,-68.239 70.1,-73.773 		"/>
		<polygon fill="#00BCE4" points="7.39,-1.844 18.457,-7.377 14.767,-9.223 18.457,-11.064 7.39,-16.598 3.702,-14.754 
			0.014,-16.598 0.014,-1.844 		"/>
		<polygon fill="#005984" points="0.014,-38.73 3.702,-40.574 7.39,-38.73 18.457,-44.264 14.767,-46.107 18.457,-47.953 
			7.39,-53.485 3.702,-51.641 0.014,-53.485 		"/>
		<polygon fill="#AEE0E8" points="40.588,-33.195 36.9,-35.041 25.833,-29.508 29.521,-27.664 25.833,-25.818 36.9,-20.287 
			40.588,-22.131 44.278,-20.287 55.343,-25.818 51.654,-27.664 55.343,-29.508 44.278,-35.041 		"/>
		<polygon fill="#007FC4" points="40.588,-70.084 36.9,-71.929 25.833,-66.396 29.521,-64.551 25.833,-62.707 36.9,-57.174 
			40.588,-59.018 44.278,-57.174 55.343,-62.707 51.654,-64.551 55.343,-66.396 44.278,-71.929 		"/>
		<polygon fill="#00BCE4" points="81.164,-1.844 81.164,-16.598 77.475,-14.754 73.787,-16.598 62.721,-11.064 66.408,-9.223 
			62.721,-7.377 73.787,-1.844 		"/>
		<polygon fill="#005984" points="81.164,-53.485 77.475,-51.641 73.787,-53.485 62.721,-47.953 66.408,-46.107 62.721,-44.264 
			73.787,-38.73 77.475,-40.574 81.164,-38.73 		"/>
		<polygon fill="#50C8E8" points="0.014,-90.371 0.014,-75.617 3.702,-77.461 7.39,-75.617 18.457,-81.15 14.767,-82.994 
			18.457,-84.838 7.39,-90.371 		"/>
		<polygon fill="#50C8E8" points="73.787,-90.371 62.721,-84.838 66.408,-82.994 62.721,-81.15 73.787,-75.617 77.475,-77.461 
			81.164,-75.617 81.164,-90.371 		"/>
	</g>
</pattern>
<pattern  x="-86" y="115" width="71.716" height="82.811" patternUnits="userSpaceOnUse" id="Hexagon_Persian" viewBox="45.281 -90.388 71.716 82.811" overflow="visible">
	<g>
		<polygon fill="none" points="45.281,-7.577 45.281,-90.388 116.997,-90.388 116.997,-7.577 		"/>
		<line fill="#FFFFFF" x1="20.531" y1="-13.577" x2="26.531" y2="-7.577"/>
		<line fill="#FFFFFF" x1="20.531" y1="-7.577" x2="26.531" y2="-13.577"/>
		<polygon fill="#231F20" points="40.906,-15.154 49.656,-15.154 54.031,-7.577 49.656,0 40.906,0 36.531,-7.577 		"/>
		<path fill="#231F20" d="M45.281-7.577"/>
		<polygon fill="#231F20" points="112.622,0 108.247,-7.577 112.622,-15.154 121.372,-15.154 125.747,-7.577 121.372,0 		"/>
		<path fill="#231F20" d="M116.997-7.577"/>
		<polygon fill="#231F20" points="85.513,-35.857 89.888,-28.279 85.513,-20.702 76.763,-20.701 72.388,-28.279 76.763,-35.857 		
			"/>
		<path fill="#231F20" d="M81.138-28.279"/>
		<polygon fill="#231F20" points="40.906,-56.56 49.656,-56.56 54.031,-48.982 49.656,-41.404 40.906,-41.404 36.531,-48.982 		"/>
		<path fill="#231F20" d="M45.281-48.982"/>
		<polygon fill="#231F20" points="121.372,-41.405 112.622,-41.404 108.247,-48.982 112.622,-56.56 121.372,-56.56 125.747,-48.982 
					"/>
		<path fill="#231F20" d="M116.997-48.982"/>
		<polygon fill="#231F20" points="89.888,-69.685 85.513,-62.107 76.763,-62.107 72.388,-69.685 76.763,-77.263 85.513,-77.263 		
			"/>
		<path fill="#231F20" d="M81.138-69.685"/>
		<polygon fill="#231F20" points="40.906,-97.966 49.656,-97.966 54.031,-90.388 49.656,-82.81 40.906,-82.81 36.531,-90.388 		"/>
		<path fill="#231F20" d="M45.281-90.388"/>
		<polygon fill="#231F20" points="121.372,-82.81 112.622,-82.81 108.247,-90.388 112.622,-97.966 121.372,-97.966 125.747,-90.388 
					"/>
		<path fill="#231F20" d="M116.997-90.388"/>
		<polygon fill="#231F20" points="17.5,-82.999 13.125,-75.421 4.375,-75.421 0,-82.999 4.375,-90.577 13.125,-90.577 		"/>
		<polygon fill="#231F20" points="64.81,-23.904 57.232,-19.529 61.607,-11.951 69.185,-16.327 		"/>
		<polygon fill="#231F20" points="76.763,-11.951 76.763,-3.202 85.513,-3.202 85.513,-11.951 		"/>
		<polygon fill="#231F20" points="93.09,-16.326 100.668,-11.951 105.043,-19.529 97.465,-23.904 		"/>
		<polygon fill="#231F20" points="49.656,-23.904 49.656,-32.654 40.906,-32.654 40.906,-23.904 		"/>
		<polygon fill="#231F20" points="112.622,-32.654 112.622,-23.904 121.372,-23.904 121.372,-32.654 		"/>
		<polygon fill="#231F20" points="93.09,-57.732 100.668,-53.357 105.043,-60.935 97.465,-65.31 		"/>
		<polygon fill="#231F20" points="97.465,-32.654 105.043,-37.03 100.668,-44.607 93.09,-40.232 		"/>
		<polygon fill="#231F20" points="61.607,-53.357 69.185,-57.732 64.81,-65.31 57.232,-60.935 		"/>
		<polygon fill="#231F20" points="57.232,-37.029 64.81,-32.654 69.185,-40.232 61.607,-44.607 		"/>
		<polygon fill="#231F20" points="85.513,-44.607 85.513,-53.357 76.763,-53.357 76.763,-44.607 		"/>
		<polygon fill="#231F20" points="49.656,-65.31 49.656,-74.06 40.906,-74.06 40.906,-65.31 		"/>
		<polygon fill="#231F20" points="112.622,-74.06 112.622,-65.31 121.372,-65.31 121.372,-74.06 		"/>
		<polygon fill="#231F20" points="97.465,-74.06 105.043,-78.435 100.668,-86.013 93.09,-81.638 		"/>
		<polygon fill="#231F20" points="85.513,-86.013 85.513,-94.763 76.763,-94.763 76.763,-86.013 		"/>
		<polygon fill="#231F20" points="57.232,-78.435 64.81,-74.06 69.185,-81.638 61.607,-86.013 		"/>
		<polygon fill="#231F20" points="13.125,-53.921 13.125,-62.671 4.375,-62.671 4.375,-53.921 		"/>
		<polygon fill="#231F20" points="69.185,-16.327 76.763,-20.702 76.763,-11.952 		"/>
		<polygon fill="#231F20" points="61.607,-11.951 54.031,-7.577 61.607,-3.202 		"/>
		<polygon fill="#231F20" points="100.668,-11.952 108.247,-7.577 100.668,-3.202 		"/>
		<polygon fill="#231F20" points="85.513,-11.951 85.513,-20.702 93.09,-16.327 		"/>
		<polygon fill="#231F20" points="57.232,-19.529 49.656,-15.154 49.656,-23.904 		"/>
		<polygon fill="#231F20" points="64.81,-32.654 72.388,-28.279 64.81,-23.904 		"/>
		<polygon fill="#231F20" points="57.232,-37.029 49.656,-41.404 49.656,-32.654 		"/>
		<polygon fill="#231F20" points="105.043,-37.029 112.622,-41.404 112.622,-32.654 		"/>
		<polygon fill="#231F20" points="97.465,-23.904 89.888,-28.279 97.465,-32.654 		"/>
		<polygon fill="#231F20" points="105.043,-19.529 112.622,-15.154 112.622,-23.904 		"/>
		<polygon fill="#231F20" points="85.513,-53.357 85.513,-62.107 93.09,-57.732 		"/>
		<polygon fill="#231F20" points="93.09,-40.232 85.513,-35.857 85.513,-44.607 		"/>
		<polygon fill="#231F20" points="100.668,-44.607 108.247,-48.982 100.668,-53.357 		"/>
		<polygon fill="#231F20" points="61.607,-44.607 54.03,-48.982 61.607,-53.357 		"/>
		<polygon fill="#231F20" points="76.763,-44.607 76.763,-35.857 69.185,-40.232 		"/>
		<polygon fill="#231F20" points="76.763,-53.357 76.763,-62.107 69.185,-57.732 		"/>
		<polygon fill="#231F20" points="57.232,-60.935 49.656,-56.56 49.656,-65.31 		"/>
		<polygon fill="#231F20" points="64.81,-74.06 72.388,-69.685 64.81,-65.31 		"/>
		<polygon fill="#231F20" points="57.232,-78.435 49.656,-82.81 49.656,-74.06 		"/>
		<polygon fill="#231F20" points="105.043,-78.435 112.622,-82.81 112.622,-74.06 		"/>
		<polygon fill="#231F20" points="97.465,-65.31 89.888,-69.685 97.465,-74.06 		"/>
		<polygon fill="#231F20" points="105.043,-60.935 112.622,-56.56 112.622,-65.31 		"/>
		<polygon fill="#231F20" points="93.09,-81.638 85.513,-77.263 85.513,-86.013 		"/>
		<polygon fill="#231F20" points="100.668,-86.013 108.247,-90.388 100.668,-94.763 		"/>
		<polygon fill="#231F20" points="61.607,-86.013 54.03,-90.388 61.607,-94.763 		"/>
		<polygon fill="#231F20" points="76.763,-86.013 76.763,-77.263 69.185,-81.638 		"/>
		<polygon fill="#231F20" points="15.125,-64.671 15.125,-73.421 22.703,-69.046 		"/>
	</g>
</pattern>
<rect x="40.833" y="37.667" fill="#F0D0B4" width="59.666" height="59.667"/>
<polygon fill="#382100" points="40.832,65.833 55.832,65.833 55.832,51.333 100.499,51.333 100.499,7.167 86.832,7.167 
	86.832,22.833 56.999,22.833 56.999,37.333 40.832,37.333 "/>
<rect x="74.666" y="64.167" width="6" height="9.833"/>
<polygon fill="#7D4921" points="40.832,65.833 55.832,65.833 55.832,83.833 100.499,83.833 100.499,97.333 40.833,97.333 "/>
<rect x="87.666" y="64.167" width="6" height="9.833"/>
<rect x="76.5" y="87.167" fill="#F0D0B4" width="15.833" height="5.833"/>
<rect x="42.334" y="97.333" fill="#F0D0B4" width="44" height="12.667"/>
<rect x="57.501" y="97.333" fill="#C9AF97" width="28.833" height="12.667"/>
<g>
	<rect x="75.816" y="258" fill="#58595B" width="47.352" height="164.5"/>
	<rect x="63.746" y="269.22" fill="#414042" width="19.498" height="22.742"/>
	<rect x="113.419" y="269.22" fill="#414042" width="19.498" height="22.742"/>
	<rect x="63.746" y="385.658" fill="#414042" width="19.498" height="22.742"/>
	<rect x="113.419" y="385.658" fill="#414042" width="19.498" height="22.742"/>
</g>
<g>
	<rect x="13.25" y="154" fill="#F0D0B4" width="15" height="110.334"/>
	<rect x="13.25" y="124.667" width="15" height="29.333"/>
	<rect x="13.25" y="241.666" width="15" height="6.668"/>
	<rect x="20.68" y="242.598" fill="#FFFFFF" width="4.141" height="4.805"/>
</g>
<g>
	<rect x="99" y="137" fill="#F0D0B4" width="15" height="127.334"/>
	<g>
		<defs>
			<rect id="SVGID_1_" x="99" y="137" width="15" height="127.334"/>
		</defs>
		<clipPath id="SVGID_2_">
			<use xlink:href="#SVGID_1_"  overflow="visible"/>
		</clipPath>
		<pattern  id="SVGID_3_" xlink:href="#Diamond_Overlap_Color" patternTransform="matrix(0.2 0 0 0.282 -6436.3682 -5727.4854)">
		</pattern>
		<rect x="94.5" y="132" clip-path="url(#SVGID_2_)" fill="url(#SVGID_3_)" width="24" height="97.667"/>
		<circle clip-path="url(#SVGID_2_)" fill="#F26522" cx="106.5" cy="200.833" r="11.334"/>
		<pattern  id="SVGID_4_" xlink:href="#Hexagon_Persian" patternTransform="matrix(0.64 0 0 0.64 -2979.2012 -2996.0576)">
		</pattern>
		<rect x="95.5" y="102" clip-path="url(#SVGID_2_)" fill="url(#SVGID_4_)" width="22" height="140"/>
	</g>
	<rect x="99" y="124.667" width="15" height="29.333"/>
</g>
<path fill="#FFFFFF" d="M109.159,322.191l0.381-4.164H88.505l1.119,12.706h14.562l-0.523,5.426l-4.688,1.261l-4.663-1.261
	l-0.31-3.331h-4.164l0.523,6.614l8.613,2.379h0.096v-0.023l8.542-2.355l1.189-12.944H93.479l-0.357-4.307H109.159z M82.271,311.032
	h33.502l-3.046,34.216l-13.753,3.854l-13.657-3.854L82.271,311.032z"/>
<polygon fill="#573515" points="28.001,229.667 100.667,229.667 100.667,422.5 73.663,422.5 73.663,255.334 59.005,255.334 
	59.005,422.5 28.001,422.5 "/>
<rect x="28.21" y="407" width="39.749" height="15.5"/>
<rect x="73.711" y="407" width="39.749" height="15.5"/>
<rect x="28.001" y="110" width="72.666" height="120.667"/>
<path fill="#FFFFFF" d="M55.856,129.946h30.643l-5.416,27.141l-16.37,5.436l-14.212-5.436l1.445-7.249h6.048l-0.591,2.993
	l8.592,3.278l9.896-3.278l1.384-6.902H52.68l1.181-6.047h24.617l0.773-3.889H54.655L55.856,129.946z"/>
</svg>
